<svg width="764" height="337" xmlns="http://www.w3.org/2000/svg" xmlns:xlink="http://www.w3.org/1999/xlink" xml:space="preserve" overflow="hidden"><defs><clipPath id="clip0"><rect x="217" y="114" width="764" height="337"/></clipPath></defs><g clip-path="url(#clip0)" transform="translate(-217 -114)"><path d="M326.808 442.164 322.232 442.164 321.184 445.024 319.658 445.024 323.662 434.918 325.283 434.918 329.287 445.024 327.762 445.024 326.808 442.164 326.808 442.164ZM322.804 440.829 326.332 440.829 324.616 436.253 322.804 440.829 322.804 440.829ZM331.289 445.024 331.289 438.16 332.529 438.16 332.529 439.113C333.005 438.35 333.863 437.969 334.626 437.969 335.484 437.969 336.342 438.35 336.723 439.304 337.295 438.35 338.153 437.969 339.011 437.969 340.251 437.969 341.395 438.827 341.395 440.543L341.395 445.024 340.06 445.024 340.06 440.734C340.06 439.876 339.583 439.208 338.63 439.208 337.677 439.208 337.009 439.971 337.009 440.924L337.009 445.119 335.675 445.119 335.675 440.829C335.675 439.971 335.198 439.304 334.245 439.304 333.291 439.304 332.624 440.066 332.624 441.02L332.624 445.119 331.289 445.024 331.289 445.024ZM350.261 443.022C349.879 444.261 348.735 445.215 347.21 445.215 345.399 445.215 343.778 443.88 343.778 441.496 343.778 439.304 345.303 437.874 347.115 437.874 349.212 437.874 350.452 439.304 350.452 441.496L350.452 441.878 345.113 441.878C345.113 443.117 346.066 443.975 347.21 443.975 348.354 443.975 348.926 443.403 349.117 442.545L350.261 443.022ZM348.926 440.829C348.926 439.876 348.259 439.113 347.019 439.113 345.875 439.113 345.208 439.971 345.113 440.829L348.926 440.829ZM354.074 445.024 352.74 445.024 352.74 438.16 354.074 438.16 354.074 439.113C354.551 438.255 355.409 437.969 356.172 437.969 357.792 437.969 358.65 439.113 358.65 440.734L358.65 445.119 357.316 445.119 357.316 441.02C357.316 440.066 356.934 439.304 355.695 439.304 354.646 439.304 354.074 440.162 354.074 441.21L354.074 445.024ZM366.277 443.975C365.991 444.642 365.228 445.215 364.18 445.215 362.178 445.215 360.938 443.594 360.938 441.592 360.938 439.685 362.273 437.969 364.18 437.969 365.419 437.969 366.086 438.541 366.277 439.113L366.277 434.632 367.612 434.632 367.612 443.689C367.612 444.357 367.707 444.833 367.707 444.929L366.372 444.929C366.372 444.738 366.277 444.452 366.277 443.975ZM364.275 443.975C365.514 443.975 366.277 442.926 366.277 441.496 366.277 440.066 365.514 439.113 364.275 439.113 363.036 439.113 362.273 440.066 362.273 441.496 362.273 442.926 363.036 443.975 364.275 443.975ZM376.573 443.022C376.192 444.261 375.048 445.215 373.523 445.215 371.711 445.215 370.091 443.88 370.091 441.496 370.091 439.304 371.616 437.874 373.427 437.874 375.525 437.874 376.764 439.304 376.764 441.496L376.764 441.878 371.616 441.878C371.616 443.117 372.569 443.975 373.713 443.975 374.857 443.975 375.429 443.403 375.62 442.545L376.573 443.022ZM375.239 440.829C375.239 439.876 374.571 439.113 373.332 439.113 372.188 439.113 371.521 439.971 371.425 440.829L375.239 440.829ZM383.914 443.975C383.628 444.642 382.865 445.215 381.817 445.215 379.815 445.215 378.575 443.594 378.575 441.592 378.575 439.685 379.91 437.969 381.817 437.969 383.056 437.969 383.723 438.541 383.914 439.113L383.914 434.632 385.249 434.632 385.249 443.689C385.249 444.357 385.344 444.833 385.344 444.929L384.009 444.929C384.009 444.738 383.914 444.452 383.914 443.975ZM381.912 443.975C383.151 443.975 383.914 442.926 383.914 441.496 383.914 440.066 383.151 439.113 381.912 439.113 380.673 439.113 379.91 440.066 379.91 441.496 379.91 442.926 380.577 443.975 381.912 443.975ZM399.263 445.024 399.263 440.543 394.115 440.543 394.115 445.024 392.685 445.024 392.685 434.918 394.115 434.918 394.115 439.208 399.263 439.208 399.263 434.918 400.693 434.918 400.693 445.024 399.263 445.024ZM404.411 434.537C404.983 434.537 405.364 434.918 405.364 435.49 405.364 436.062 404.983 436.444 404.411 436.444 403.839 436.444 403.458 435.967 403.458 435.49 403.458 435.014 403.934 434.537 404.411 434.537ZM403.744 445.024 403.744 438.16 405.078 438.16 405.078 445.024 403.744 445.024ZM408.701 442.831C408.797 443.594 409.369 444.07 410.322 444.07 411.085 444.07 411.466 443.689 411.466 443.117 411.466 442.736 411.18 442.354 410.608 442.259L409.464 441.973C408.415 441.782 407.748 441.02 407.748 440.066 407.748 438.922 408.892 437.874 410.227 437.874 412.133 437.874 412.705 439.113 412.801 439.685L411.657 440.162C411.561 439.78 411.275 439.018 410.227 439.018 409.559 439.018 409.083 439.494 409.083 439.971 409.083 440.352 409.369 440.734 409.845 440.829L410.989 441.115C412.229 441.401 412.896 442.164 412.896 443.117 412.896 444.07 412.038 445.215 410.417 445.215 408.511 445.215 407.748 443.975 407.653 443.212L408.701 442.831 408.701 442.831ZM417.091 438.16 418.616 438.16 418.616 439.399 417.091 439.399 417.091 443.022C417.091 443.689 417.377 443.975 418.044 443.975 418.235 443.975 418.425 443.975 418.616 443.88L418.616 445.024C418.521 445.024 418.139 445.119 417.663 445.119 416.519 445.119 415.756 444.357 415.756 443.117L415.756 439.304 414.421 439.304 414.421 438.064 414.803 438.064C415.565 438.064 415.851 437.588 415.851 437.016L415.851 435.872 417.091 435.872 417.091 438.16 417.091 438.16ZM427.482 441.592C427.482 443.689 426.052 445.215 423.955 445.215 421.857 445.215 420.427 443.689 420.427 441.592 420.427 439.494 421.857 437.969 423.955 437.969 426.052 437.969 427.482 439.494 427.482 441.592ZM426.052 441.592C426.052 439.971 425.003 439.113 423.955 439.113 422.811 439.113 421.857 439.971 421.857 441.592 421.857 443.212 422.811 444.07 423.955 444.07 425.099 443.975 426.052 443.117 426.052 441.592ZM433.679 439.494 433.107 439.494C431.963 439.494 431.2 440.066 431.2 441.592L431.2 445.024 429.866 445.024 429.866 438.16 431.2 438.16 431.2 439.399C431.677 438.35 432.535 438.064 433.298 438.064L433.774 438.064 433.774 439.494 433.679 439.494ZM436.348 447.884 438.064 444.261 435.109 438.16 436.634 438.16 438.732 442.926 440.829 438.16 442.259 438.16 437.778 447.884 436.348 447.884 436.348 447.884Z" fill="#999999" transform="matrix(1.00173 0 0 1 217 114)"/><path d="M525.677 595.653 525.677 573.249M535.973 587.359 525.582 597.751 515.286 587.359" stroke="#404040" stroke-width="3.8134" stroke-linecap="round" stroke-linejoin="round" stroke-miterlimit="10" fill="none" transform="matrix(1.00173 0 0 1 217 114)"/><path d="M231.283 636.838 505.657 636.838" stroke="#404040" stroke-width="3.8134" stroke-linecap="round" stroke-linejoin="round" stroke-miterlimit="10" fill="none" transform="matrix(1.00173 0 0 1 217 114)"/><path d="M231.283 636.838C231.283 647.895 222.319 656.858 211.262 656.858 200.205 656.858 191.242 647.895 191.242 636.838 191.242 625.781 200.205 616.818 211.262 616.818 222.319 616.818 231.283 625.781 231.283 636.838Z" stroke="#404040" stroke-width="3.8134" stroke-linecap="round" stroke-linejoin="round" stroke-miterlimit="10" fill="#FFFFFF" transform="matrix(1.00173 0 0 1 217 114)"/><path d="M336.056 636.838C336.056 647.895 327.093 656.858 316.036 656.858 304.979 656.858 296.015 647.895 296.015 636.838 296.015 625.781 304.979 616.818 316.036 616.818 327.093 616.818 336.056 625.781 336.056 636.838Z" stroke="#404040" stroke-width="3.8134" stroke-linecap="round" stroke-linejoin="round" stroke-miterlimit="10" fill="#FFFFFF" transform="matrix(1.00173 0 0 1 217 114)"/><path d="M440.829 636.838C440.829 647.895 431.866 656.858 420.809 656.858 409.752 656.858 400.788 647.895 400.788 636.838 400.788 625.781 409.752 616.818 420.809 616.818 431.866 616.818 440.829 625.781 440.829 636.838Z" stroke="#404040" stroke-width="3.8134" stroke-linecap="round" stroke-linejoin="round" stroke-miterlimit="10" fill="#FFFFFF" transform="matrix(1.00173 0 0 1 217 114)"/><path d="M545.698 636.838C545.698 647.895 536.734 656.858 525.677 656.858 514.62 656.858 505.657 647.895 505.657 636.838 505.657 625.781 514.62 616.818 525.677 616.818 536.734 616.818 545.698 625.781 545.698 636.838Z" stroke="#404040" stroke-width="3.8134" stroke-linejoin="round" stroke-miterlimit="10" fill="#59AFE1" transform="matrix(1.00173 0 0 1 217 114)"/><path d="M519.385 636.838 531.779 636.838M521.292 632.453 529.967 641.223M529.967 632.453 521.292 641.223M525.582 630.641 525.582 643.035" stroke="#404040" stroke-width="3.8134" stroke-linecap="round" stroke-linejoin="round" stroke-miterlimit="10" fill="#FFFFFF" transform="matrix(1.00173 0 0 1 217 114)"/><path d="M326.332 698.234C328.238 698.234 329.382 699.378 329.382 700.998 329.382 702.047 328.715 702.905 327.857 703.191 329.001 703.477 329.668 704.526 329.668 705.67 329.668 707.29 328.429 708.434 326.522 708.434L322.995 708.434 322.995 698.329 326.332 698.329 326.332 698.234ZM326.236 702.714C327.38 702.714 328.048 702.047 328.048 701.094 328.048 700.14 327.38 699.473 326.141 699.473L324.425 699.473 324.425 702.714 326.236 702.714ZM326.427 707.195C327.571 707.195 328.334 706.528 328.334 705.574 328.334 704.621 327.762 703.954 326.522 703.954L324.52 703.954 324.52 707.195 326.427 707.195ZM335.961 702.905 335.389 702.905C334.245 702.905 333.482 703.477 333.482 705.002L333.482 708.434 332.147 708.434 332.147 701.57 333.482 701.57 333.482 702.81C333.959 701.761 334.817 701.475 335.579 701.475L336.056 701.475 336.056 702.905 335.961 702.905ZM339.774 704.43 341.681 704.144C342.062 704.049 342.253 703.858 342.253 703.668 342.253 703 341.776 702.428 340.727 702.428 339.774 702.428 339.297 703 339.202 703.858L337.963 703.572C338.058 702.238 339.297 701.38 340.823 701.38 342.92 701.38 343.683 702.524 343.683 703.858L343.683 707.29C343.683 707.862 343.778 708.244 343.778 708.434L342.253 708.434C342.253 708.244 342.157 707.958 342.157 707.481 341.871 707.958 341.204 708.625 339.965 708.625 338.535 708.625 337.677 707.672 337.677 706.528 337.677 705.288 338.63 704.621 339.774 704.43L339.774 704.43ZM342.157 705.479 342.157 705.193 340.06 705.479C339.488 705.574 339.011 705.86 339.011 706.528 339.011 707.004 339.488 707.481 340.155 707.481 341.299 707.481 342.157 706.909 342.157 705.479ZM347.687 708.434 346.352 708.434 346.352 701.57 347.687 701.57 347.687 702.524C348.163 701.666 349.021 701.38 349.784 701.38 351.405 701.38 352.263 702.524 352.263 704.144L352.263 708.53 350.833 708.53 350.833 704.43C350.833 703.477 350.452 702.714 349.212 702.714 348.163 702.714 347.591 703.572 347.591 704.621L347.591 708.434 347.687 708.434ZM359.89 707.386C359.604 708.053 358.841 708.625 357.792 708.625 355.79 708.625 354.551 707.004 354.551 705.002 354.551 703.096 355.886 701.38 357.792 701.38 359.032 701.38 359.699 701.952 359.89 702.524L359.89 698.043 361.224 698.043 361.224 707.1C361.224 707.767 361.32 708.244 361.32 708.339L359.985 708.339C359.985 708.148 359.89 707.862 359.89 707.386ZM357.888 707.386C359.127 707.386 359.89 706.337 359.89 704.907 359.89 703.477 359.127 702.524 357.888 702.524 356.648 702.524 355.886 703.477 355.886 704.907 355.886 706.337 356.648 707.386 357.888 707.386ZM375.525 708.434 370.091 700.14 370.091 708.434 368.66 708.434 368.66 698.329 370.567 698.329 375.62 706.146 375.62 698.329 377.05 698.329 377.05 708.434 375.525 708.434 375.525 708.434ZM386.107 706.432C385.725 707.672 384.581 708.625 383.056 708.625 381.245 708.625 379.624 707.29 379.624 704.907 379.624 702.714 381.149 701.284 382.961 701.284 385.058 701.284 386.297 702.714 386.297 704.907L386.297 705.288 381.149 705.288C381.149 706.528 382.103 707.386 383.247 707.386 384.391 707.386 384.963 706.814 385.153 705.956L386.107 706.432ZM384.772 704.24C384.772 703.286 384.105 702.524 382.865 702.524 381.721 702.524 381.054 703.382 380.959 704.24L384.772 704.24ZM393.734 701.475 395.545 706.623 397.07 701.475 398.5 701.475 396.308 708.339 394.878 708.339 393.066 703.096 391.255 708.339 389.825 708.339 387.537 701.475 388.967 701.475 390.492 706.623 392.304 701.475 393.734 701.475 393.734 701.475ZM404.316 703.286C404.316 699.854 406.795 698.043 409.369 698.043 411.657 698.043 413.277 699.282 413.849 701.284L412.515 701.761C412.133 700.236 410.989 699.378 409.369 699.378 407.557 699.378 405.746 700.712 405.746 703.382 405.746 706.051 407.462 707.386 409.369 707.386 411.085 707.386 412.229 706.337 412.61 705.002L413.849 705.479C413.277 707.386 411.752 708.721 409.369 708.721 406.795 708.625 404.316 706.718 404.316 703.286L404.316 703.286ZM422.525 704.907C422.525 707.004 421.095 708.53 418.997 708.53 416.9 708.53 415.47 707.004 415.47 704.907 415.47 702.81 416.9 701.284 418.997 701.284 421.095 701.284 422.525 702.81 422.525 704.907ZM421.095 704.907C421.095 703.286 420.141 702.428 418.997 702.428 417.853 702.428 416.9 703.286 416.9 704.907 416.9 706.528 417.853 707.386 418.997 707.386 420.141 707.386 421.095 706.528 421.095 704.907ZM424.908 708.434 424.908 701.57 426.147 701.57 426.147 702.524C426.624 701.761 427.482 701.38 428.245 701.38 429.103 701.38 429.961 701.761 430.342 702.714 430.914 701.761 431.772 701.38 432.63 701.38 433.87 701.38 435.014 702.238 435.014 703.954L435.014 708.434 433.679 708.434 433.679 704.144C433.679 703.286 433.202 702.619 432.249 702.619 431.296 702.619 430.628 703.382 430.628 704.335L430.628 708.53 429.294 708.53 429.294 704.24C429.294 703.382 428.817 702.714 427.864 702.714 426.91 702.714 426.243 703.477 426.243 704.43L426.243 708.53 424.908 708.53 424.908 708.434ZM437.874 708.434 437.874 701.57 439.113 701.57 439.113 702.524C439.59 701.761 440.448 701.38 441.21 701.38 442.068 701.38 442.926 701.761 443.308 702.714 443.88 701.761 444.738 701.38 445.596 701.38 446.835 701.38 447.979 702.238 447.979 703.954L447.979 708.434 446.645 708.434 446.645 704.144C446.645 703.286 446.168 702.619 445.215 702.619 444.261 702.619 443.594 703.382 443.594 704.335L443.594 708.53 442.259 708.53 442.259 704.24C442.259 703.382 441.782 702.714 440.829 702.714 439.876 702.714 439.208 703.477 439.208 704.43L439.208 708.53 437.874 708.53 437.874 708.434ZM451.507 697.948C452.079 697.948 452.46 698.329 452.46 698.901 452.46 699.473 451.983 699.854 451.507 699.854 450.935 699.854 450.553 699.378 450.553 698.901 450.553 698.329 450.935 697.948 451.507 697.948ZM450.839 708.434 450.839 701.57 452.174 701.57 452.174 708.434 450.839 708.434ZM456.941 701.475 458.466 701.475 458.466 702.714 456.941 702.714 456.941 706.337C456.941 707.004 457.227 707.29 457.894 707.29 458.085 707.29 458.275 707.29 458.466 707.195L458.466 708.339C458.371 708.339 457.989 708.434 457.513 708.434 456.369 708.434 455.606 707.672 455.606 706.432L455.606 702.619 454.271 702.619 454.271 701.38 454.653 701.38C455.415 701.38 455.701 700.903 455.701 700.331L455.701 699.187 456.941 699.187 456.941 701.475 456.941 701.475ZM461.612 706.146C461.707 706.909 462.279 707.386 463.233 707.386 463.996 707.386 464.377 707.004 464.377 706.432 464.377 706.051 464.091 705.67 463.519 705.574L462.375 705.288C461.326 705.098 460.659 704.335 460.659 703.382 460.659 702.238 461.803 701.189 463.137 701.189 465.044 701.189 465.616 702.428 465.712 703L464.568 703.477C464.472 703.096 464.186 702.333 463.137 702.333 462.47 702.333 461.993 702.81 461.993 703.286 461.993 703.668 462.279 704.049 462.756 704.144L463.9 704.43C465.14 704.716 465.807 705.479 465.807 706.432 465.807 707.386 464.949 708.53 463.328 708.53 461.421 708.53 460.659 707.29 460.563 706.528L461.612 706.146 461.612 706.146Z" fill="#404040" transform="matrix(1.00173 0 0 1 217 114)"/><path d="M295.634 703.191 308.027 703.191M297.445 698.806 306.216 707.481M306.216 698.806 297.445 707.481M301.831 696.994 301.831 709.388" stroke="#404040" stroke-width="3.8134" stroke-linecap="round" stroke-linejoin="round" stroke-miterlimit="10" fill="#FFFFFF" transform="matrix(1.00173 0 0 1 217 114)"/><path d="M334.34 19.7343 334.34 9.62884 335.77 9.62884 335.77 19.7343 334.34 19.7343ZM340.251 19.7343 338.916 19.7343 338.916 12.8702 340.251 12.8702 340.251 13.8236C340.727 12.9656 341.585 12.6796 342.348 12.6796 343.969 12.6796 344.827 13.8236 344.827 15.3489L344.827 19.7343 343.492 19.7343 343.492 15.6349C343.492 14.6816 343.111 13.9189 341.871 13.9189 340.823 13.9189 340.251 14.7769 340.251 15.8256 340.251 15.8256 340.251 19.7343 340.251 19.7343ZM348.354 9.34283C348.926 9.34283 349.307 9.81951 349.307 10.2962 349.307 10.8682 348.831 11.2495 348.354 11.2495 347.782 11.2495 347.401 10.7729 347.401 10.2962 347.401 9.72417 347.782 9.34283 348.354 9.34283ZM347.687 19.7343 347.687 12.8702 349.021 12.8702 349.021 19.7343 347.687 19.7343ZM353.788 12.8702 355.314 12.8702 355.314 14.1096 353.788 14.1096 353.788 17.7323C353.788 18.3997 354.074 18.6857 354.742 18.6857 354.932 18.6857 355.123 18.6857 355.314 18.5903L355.314 19.7343C355.218 19.7343 354.837 19.8297 354.36 19.8297 353.216 19.8297 352.454 19.067 352.454 17.8276L352.454 14.0142 351.119 14.0142 351.119 12.7749 351.5 12.7749C352.263 12.7749 352.549 12.2982 352.549 11.7262L352.549 10.5822 353.788 10.5822C353.788 10.5822 353.788 12.8702 353.788 12.8702ZM358.46 9.34283C359.032 9.34283 359.413 9.81951 359.413 10.2962 359.413 10.8682 358.936 11.2495 358.46 11.2495 357.888 11.2495 357.506 10.7729 357.506 10.2962 357.506 9.72417 357.983 9.34283 358.46 9.34283ZM357.792 19.7343 357.792 12.8702 359.127 12.8702 359.127 19.7343 357.792 19.7343ZM363.798 15.8256 365.705 15.5396C366.086 15.4443 366.277 15.2536 366.277 15.0629 366.277 14.3956 365.8 13.8236 364.752 13.8236 363.798 13.8236 363.322 14.3956 363.226 15.2536L361.987 14.9676C362.178 13.6329 363.322 12.7749 364.847 12.7749 366.944 12.7749 367.707 13.9189 367.707 15.2536L367.707 18.6857C367.707 19.2577 367.802 19.639 367.802 19.8297L366.468 19.8297C366.468 19.639 366.372 19.353 366.372 18.8763 366.086 19.353 365.419 20.0204 364.18 20.0204 362.75 20.0204 361.892 19.067 361.892 17.923 361.701 16.6836 362.654 16.0163 363.798 15.8256L363.798 15.8256ZM366.182 16.779 366.182 16.493 364.084 16.779C363.512 16.8743 363.131 17.1603 363.131 17.8276 363.131 18.3043 363.608 18.781 364.275 18.781 365.324 18.8763 366.182 18.3043 366.182 16.779ZM370.377 19.7343 370.377 9.43817 371.711 9.43817 371.711 19.8297 370.377 19.7343 370.377 19.7343ZM385.725 19.7343 385.725 15.2536 380.577 15.2536 380.577 19.7343 379.147 19.7343 379.147 9.62884 380.577 9.62884 380.577 13.9189 385.725 13.9189 385.725 9.62884 387.155 9.62884 387.155 19.7343 385.725 19.7343ZM390.874 9.34283C391.446 9.34283 391.827 9.81951 391.827 10.2962 391.827 10.8682 391.35 11.2495 390.874 11.2495 390.302 11.2495 389.92 10.7729 389.92 10.2962 389.92 9.72417 390.397 9.34283 390.874 9.34283ZM390.206 19.7343 390.206 12.8702 391.541 12.8702 391.541 19.7343 390.206 19.7343ZM395.164 17.5416C395.259 18.3043 395.831 18.781 396.784 18.781 397.547 18.781 397.928 18.3997 397.928 17.8276 397.928 17.4463 397.642 17.065 397.07 16.9696L395.926 16.6836C394.878 16.493 394.21 15.7303 394.21 14.7769 394.21 13.6329 395.354 12.5842 396.689 12.5842 398.596 12.5842 399.168 13.8236 399.263 14.3956L398.119 14.8723C398.024 14.4909 397.738 13.7282 396.689 13.7282 396.022 13.7282 395.545 14.2049 395.545 14.6816 395.545 15.0629 395.831 15.4443 396.308 15.5396L397.452 15.8256C398.691 16.1116 399.358 16.8743 399.358 17.8276 399.358 18.781 398.5 19.925 396.88 19.925 394.973 19.925 394.21 18.6857 394.115 17.923L395.164 17.5416 395.164 17.5416ZM403.553 12.8702 405.078 12.8702 405.078 14.1096 403.553 14.1096 403.553 17.7323C403.553 18.3997 403.839 18.6857 404.506 18.6857 404.697 18.6857 404.888 18.6857 405.078 18.5903L405.078 19.7343C404.983 19.7343 404.602 19.8297 404.125 19.8297 402.981 19.8297 402.218 19.067 402.218 17.8276L402.218 14.0142 400.884 14.0142 400.884 12.7749 401.265 12.7749C402.028 12.7749 402.314 12.2982 402.314 11.7262L402.314 10.5822 403.553 10.5822 403.553 12.8702ZM413.945 16.3023C413.945 18.3997 412.515 19.925 410.417 19.925 408.32 19.925 406.89 18.3997 406.89 16.3023 406.89 14.2049 408.32 12.6796 410.417 12.6796 412.515 12.6796 413.945 14.2049 413.945 16.3023ZM412.61 16.3023C412.61 14.6816 411.561 13.8236 410.513 13.8236 409.369 13.8236 408.415 14.6816 408.415 16.3023 408.415 17.923 409.369 18.781 410.513 18.781 411.561 18.781 412.61 17.923 412.61 16.3023ZM420.237 14.2049 419.665 14.2049C418.521 14.2049 417.758 14.7769 417.758 16.3023L417.758 19.7343 416.423 19.7343 416.423 12.8702 417.758 12.8702 417.758 14.1096C418.235 13.0609 419.093 12.7749 419.855 12.7749L420.332 12.7749 420.332 14.2049 420.237 14.2049ZM422.811 22.5944 424.527 18.9717 421.571 12.8702 423.097 12.8702 425.194 17.637 427.292 12.8702 428.722 12.8702 424.241 22.5944C424.241 22.5944 422.811 22.5944 422.811 22.5944Z" fill="#999999" transform="matrix(1.00173 0 0 1 217 114)"/><path d="M525.677 178.276 525.677 155.873M535.973 169.982 525.582 180.279 515.286 169.982" stroke="#404040" stroke-width="3.8134" stroke-linecap="round" stroke-linejoin="round" stroke-miterlimit="10" fill="none" transform="matrix(1.00173 0 0 1 217 114)"/><path d="M231.283 219.366 505.657 219.366" stroke="#404040" stroke-width="3.8134" stroke-linecap="round" stroke-linejoin="round" stroke-miterlimit="10" fill="none" transform="matrix(1.00173 0 0 1 217 114)"/><path d="M231.283 219.366C231.283 230.423 222.319 239.386 211.262 239.386 200.205 239.386 191.242 230.423 191.242 219.366 191.242 208.309 200.205 199.346 211.262 199.346 222.319 199.346 231.283 208.309 231.283 219.366Z" stroke="#404040" stroke-width="3.8134" stroke-linecap="round" stroke-linejoin="round" stroke-miterlimit="10" fill="#FFFFFF" transform="matrix(1.00173 0 0 1 217 114)"/><path d="M336.056 219.366C336.056 230.423 327.093 239.386 316.036 239.386 304.979 239.386 296.015 230.423 296.015 219.366 296.015 208.309 304.979 199.346 316.036 199.346 327.093 199.346 336.056 208.309 336.056 219.366Z" stroke="#404040" stroke-width="3.8134" stroke-linecap="round" stroke-linejoin="round" stroke-miterlimit="10" fill="#FFFFFF" transform="matrix(1.00173 0 0 1 217 114)"/><path d="M440.829 219.366C440.829 230.423 431.866 239.386 420.809 239.386 409.752 239.386 400.788 230.423 400.788 219.366 400.788 208.309 409.752 199.346 420.809 199.346 431.866 199.346 440.829 208.309 440.829 219.366Z" stroke="#404040" stroke-width="3.8134" stroke-linecap="round" stroke-linejoin="round" stroke-miterlimit="10" fill="#FFFFFF" transform="matrix(1.00173 0 0 1 217 114)"/><path d="M545.698 219.366C545.698 230.423 536.734 239.386 525.677 239.386 514.62 239.386 505.657 230.423 505.657 219.366 505.657 208.309 514.62 199.346 525.677 199.346 536.734 199.346 545.698 208.309 545.698 219.366Z" stroke="#404040" stroke-width="3.8134" stroke-linejoin="round" stroke-miterlimit="10" fill="#59AFE1" transform="matrix(1.00173 0 0 1 217 114)"/><path d="M123.268 336.628 639.412 336.628" stroke="#CCCCCC" stroke-width="0.95335" stroke-linecap="round" stroke-linejoin="round" stroke-miterlimit="10" fill="none" transform="matrix(1.00173 0 0 1 217 114)"/><path d="M479.63 88.2802 571.343 88.2802 571.343 135.948 479.63 135.948 479.63 88.2802Z" stroke="#404040" stroke-width="3.8134" stroke-linecap="round" stroke-linejoin="round" stroke-miterlimit="10" fill="#B3E3FF" transform="matrix(1.00173 0 0 1 217 114)"/><path d="M510.996 117.929 510.996 108.396 512.902 108.396 515.19 115.165C515.381 115.832 515.572 116.309 515.667 116.595 515.762 116.213 515.953 115.737 516.144 115.069L518.432 108.396 520.148 108.396 520.148 117.929 518.908 117.929 518.908 109.921 516.144 117.929 515 117.929 512.235 109.826 512.235 117.929 510.996 117.929Z" fill="#414141" transform="matrix(1.00173 0 0 1 217 114)"/><path d="M527.203 117.071C526.726 117.453 526.345 117.739 525.963 117.834 525.582 118.025 525.105 118.025 524.629 118.025 523.866 118.025 523.294 117.834 522.913 117.453 522.531 117.071 522.341 116.595 522.341 116.023 522.341 115.641 522.436 115.355 522.531 115.069 522.722 114.783 522.913 114.593 523.103 114.402 523.389 114.211 523.675 114.116 523.961 114.021 524.152 113.925 524.533 113.925 525.01 113.83 525.963 113.735 526.631 113.544 527.107 113.449 527.107 113.258 527.107 113.163 527.107 113.163 527.107 112.686 527.012 112.305 526.821 112.114 526.535 111.828 526.059 111.733 525.487 111.733 524.915 111.733 524.533 111.828 524.247 112.019 523.961 112.209 523.771 112.591 523.675 113.067L522.531 112.877C522.627 112.4 522.817 112.019 523.008 111.733 523.294 111.447 523.58 111.161 524.057 111.065 524.533 110.875 525.01 110.779 525.582 110.779 526.154 110.779 526.631 110.875 527.012 110.97 527.393 111.065 527.679 111.256 527.87 111.542 528.061 111.733 528.156 112.019 528.251 112.305 528.251 112.495 528.347 112.877 528.347 113.353L528.347 114.879C528.347 115.927 528.347 116.69 528.442 116.976 528.537 117.262 528.633 117.548 528.728 117.834L527.489 117.834C527.298 117.739 527.203 117.453 527.203 117.071ZM527.107 114.497C526.726 114.688 526.059 114.783 525.201 114.974 524.724 115.069 524.343 115.165 524.152 115.165 523.961 115.165 523.771 115.355 523.675 115.546 523.58 115.737 523.485 115.927 523.485 116.118 523.485 116.404 523.58 116.69 523.866 116.881 524.057 117.071 524.438 117.167 524.915 117.167 525.391 117.167 525.773 117.071 526.154 116.881 526.535 116.69 526.726 116.404 526.917 116.023 527.012 115.737 527.107 115.355 527.107 114.879L527.107 114.497 527.107 114.497Z" fill="#414141" transform="matrix(1.00173 0 0 1 217 114)"/><path d="M530.73 109.731 530.73 108.396 531.874 108.396 531.874 109.731 530.73 109.731ZM530.73 117.929 530.73 110.97 531.874 110.97 531.874 117.929 530.73 117.929Z" fill="#414141" transform="matrix(1.00173 0 0 1 217 114)"/><path d="M534.353 117.929 534.353 110.97 535.401 110.97 535.401 111.923C535.878 111.161 536.641 110.779 537.594 110.779 537.975 110.779 538.357 110.875 538.738 110.97 539.12 111.161 539.31 111.351 539.501 111.542 539.691 111.733 539.787 112.114 539.882 112.4 539.882 112.591 539.978 112.972 539.978 113.544L539.978 117.834 538.833 117.834 538.833 113.639C538.833 113.163 538.833 112.781 538.738 112.591 538.643 112.4 538.452 112.209 538.261 112.019 538.071 111.923 537.785 111.828 537.404 111.828 536.927 111.828 536.45 112.019 536.069 112.305 535.687 112.591 535.497 113.258 535.497 114.116L535.497 117.929 534.353 117.929 534.353 117.929Z" fill="#414141" transform="matrix(1.00173 0 0 1 217 114)"/><path d="M479.63 505.657 571.343 505.657 571.343 553.324 479.63 553.324 479.63 505.657Z" stroke="#404040" stroke-width="3.8134" stroke-linecap="round" stroke-linejoin="round" stroke-miterlimit="10" fill="#B3E3FF" transform="matrix(1.00173 0 0 1 217 114)"/><path d="M510.996 535.306 510.996 525.773 512.902 525.773 515.19 532.541C515.381 533.209 515.572 533.685 515.667 533.971 515.762 533.59 515.953 533.113 516.144 532.446L518.432 525.773 520.148 525.773 520.148 535.306 518.908 535.306 518.908 527.298 516.144 535.306 515 535.306 512.235 527.203 512.235 535.306 510.996 535.306Z" fill="#414141" transform="matrix(1.00173 0 0 1 217 114)"/><path d="M527.203 534.448C526.726 534.829 526.345 535.115 525.963 535.211 525.582 535.401 525.105 535.401 524.629 535.401 523.866 535.401 523.294 535.211 522.913 534.829 522.531 534.448 522.341 533.971 522.341 533.399 522.341 533.018 522.436 532.732 522.531 532.446 522.722 532.16 522.913 531.969 523.103 531.779 523.389 531.588 523.675 531.493 523.961 531.397 524.152 531.302 524.533 531.302 525.01 531.207 525.963 531.111 526.631 530.921 527.107 530.825 527.107 530.635 527.107 530.539 527.107 530.539 527.107 530.063 527.012 529.681 526.821 529.491 526.535 529.205 526.059 529.109 525.487 529.109 524.915 529.109 524.533 529.205 524.247 529.395 523.961 529.586 523.771 529.967 523.675 530.444L522.531 530.253C522.627 529.777 522.817 529.395 523.008 529.109 523.294 528.823 523.58 528.537 524.057 528.442 524.533 528.251 525.01 528.156 525.582 528.156 526.154 528.156 526.631 528.251 527.012 528.347 527.393 528.442 527.679 528.633 527.87 528.919 528.061 529.109 528.156 529.395 528.251 529.681 528.251 529.872 528.347 530.253 528.347 530.73L528.347 532.255C528.347 533.304 528.347 534.067 528.442 534.353 528.537 534.639 528.633 534.925 528.728 535.211L527.489 535.211C527.298 535.115 527.203 534.829 527.203 534.448ZM527.107 531.874C526.726 532.065 526.059 532.16 525.201 532.351 524.724 532.446 524.343 532.541 524.152 532.541 523.961 532.541 523.771 532.732 523.675 532.923 523.58 533.113 523.485 533.304 523.485 533.495 523.485 533.781 523.58 534.067 523.866 534.257 524.057 534.448 524.438 534.543 524.915 534.543 525.391 534.543 525.773 534.448 526.154 534.257 526.535 534.067 526.726 533.781 526.917 533.399 527.012 533.113 527.107 532.732 527.107 532.255L527.107 531.874 527.107 531.874Z" fill="#414141" transform="matrix(1.00173 0 0 1 217 114)"/><path d="M530.73 527.107 530.73 525.773 531.874 525.773 531.874 527.107 530.73 527.107ZM530.73 535.306 530.73 528.347 531.874 528.347 531.874 535.306 530.73 535.306Z" fill="#414141" transform="matrix(1.00173 0 0 1 217 114)"/><path d="M534.353 535.306 534.353 528.347 535.401 528.347 535.401 529.3C535.878 528.537 536.641 528.156 537.594 528.156 537.975 528.156 538.357 528.251 538.738 528.347 539.12 528.537 539.31 528.728 539.501 528.919 539.691 529.109 539.787 529.491 539.882 529.777 539.882 529.967 539.978 530.349 539.978 530.921L539.978 535.211 538.833 535.211 538.833 531.016C538.833 530.539 538.833 530.158 538.738 529.967 538.643 529.777 538.452 529.586 538.261 529.395 538.071 529.3 537.785 529.205 537.404 529.205 536.927 529.205 536.45 529.395 536.069 529.681 535.687 529.967 535.497 530.635 535.497 531.493L535.497 535.306 534.353 535.306 534.353 535.306Z" fill="#414141" transform="matrix(1.00173 0 0 1 217 114)"/></g></svg>